<?xml version="1.0" encoding="UTF-8"?>
<svg id="uuid-78b41761-2760-48d9-a608-fc5437c44ad2" data-name="Layer 1" xmlns="http://www.w3.org/2000/svg" viewBox="0 0 271.94 100">
  <defs>
    <style>
      .uuid-6300ef21-37ba-4a24-98a5-79539169dbcc {
        fill: #d8d0c3;
      }
    </style>
  </defs>
  <g>
    <path class="uuid-6300ef21-37ba-4a24-98a5-79539169dbcc" d="m2.54,76.06l12.65-40.12h-6.15l3.53-11.69h6.25s3.63-12.9,11.69-19.15c8.07-6.25,22.18-3.43,22.18-3.43l-4.03,12.5s-1.01-1.21-5.24-1.21-8.47,3.83-9.68,11.49h9.68l-3.43,11.69h-10.28l-12.04,39.92H2.54Z"/>
    <path class="uuid-6300ef21-37ba-4a24-98a5-79539169dbcc" d="m34.8,76.06s12.85-37.1,14.66-51.42h13.11l-2.42,10.28s8.47-12.9,20.16-11.29l-4.03,14.4s-14.32-3.11-20.36,17.05c-6.05,20.16-6.38,20.97-6.38,20.97h-14.74Z"/>
    <path class="uuid-6300ef21-37ba-4a24-98a5-79539169dbcc" d="m129.97,27.07s-12.65,36.9-13.11,48.99h-15.99l.83-3.23-1.65.21c.45-.09,1.38-.73,1.96-2.51.88-2.71,7.78-23.28,7.78-23.28,0,0,1.15-2.57-.41-4.33s.75-7.04.75-7.04l1.5-4.16c.18-.51-.07-1.08-.58-1.28l-1.69-.67c-.54-.21-1.14.07-1.33.61l-1.49,4.35s-1.55,5.42-3.52,5.62c-1.96.2-2.84,2.34-3.25,3.47-.4,1.13-7.98,22.65-8.46,24.14-.47,1.49-.2,2.91,1.22,3.46,1.42.54,5.84,1.74,5.84,1.74,0,0-6.38,3.92-12.03,4.12-5.64.2-13.1-4.03-12.9-15.32.2-11.3,11.3-37.5,39.72-37.5,0,0,10.21,0,16.8,2.62Z"/>
    <path class="uuid-6300ef21-37ba-4a24-98a5-79539169dbcc" d="m128.8,76.06s15.63-48.17,15.28-51.02h13.56l-2.16,8.38s7.94-9.41,18.48-9.41,11.74,8.03,11.74,11.4-1.55,9.84-5.09,20.72c-3.54,10.88-6.48,19.93-6.48,19.93h-14.85s8.72-27.27,9.5-29.86,2.68-10.1-3.54-10.1-12.26,8.72-15.11,18.82c-2.85,10.1-6.13,21.14-6.13,21.14h-15.2Z"/>
    <path class="uuid-6300ef21-37ba-4a24-98a5-79539169dbcc" d="m176.12,84.28s3.27,1.27,6.09,0,4.27-3.88,5.64-8.21c1.36-4.34,16.01-50.9,16.01-50.9h15.1s-15.92,50.06-16.19,50.9-4.27,13.49-9.91,18.67c-5.64,5.18-16.46,4.46-20.74,3.73l4-14.19Z"/>
    <ellipse class="uuid-6300ef21-37ba-4a24-98a5-79539169dbcc" cx="213.77" cy="12.52" rx="10.92" ry="8.83" transform="translate(41.36 139.52) rotate(-39.73)"/>
    <path class="uuid-6300ef21-37ba-4a24-98a5-79539169dbcc" d="m271.94,27.07s-12.65,36.9-13.11,48.99h-13.7l.84-6.67c.09-.01.17-.03.26-.06,2.5-.55,4.61-1.61,5.49-2.1.11-.06.07-.23-.06-.23-1.03.03-3.41-.07-4.86-1.49-1.9-1.84-3-11.3-2.08-13.46.31-.73,3.89-9.82-.07-17.49-.09-.17-.28-.28-.47-.26-1.49.12-7.75.76-11.41,3.64-.12.1-.19.24-.19.4.01.87.13,3.85,1.17,6.36,1.24,2.97,3.75,6.05,4.79,7.17s4.03,2.41,5.13,8.45c1.08,5.91,1.8,6.52-2.86,9.26-.1.06-.07.22.05.23.56.03,1.71.06,3.19-.11l-.19.27s-4.29,6.88-15.53,7.29c-5.64.21-13.1-4.03-12.9-15.32.2-11.3,11.3-37.5,39.72-37.5,0,0,10.21,0,16.8,2.62Z"/>
  </g>
  <g>
    <path class="uuid-6300ef21-37ba-4a24-98a5-79539169dbcc" d="m.41,95.15l-.41-12.21h3.12l-.09,4.61c-.04,1.44-.06,3.06-.12,4.31h.04c.49-1.37,1-2.81,1.52-4.28l1.66-4.64h3.42l-.16,4.77c-.05,1.41-.1,2.69-.18,4.06h.04c.44-1.35.93-2.82,1.42-4.23l1.6-4.61h3.25l-5.25,12.21h-3.39l.02-4.17c0-1.44.05-2.91.14-4.29h-.04c-.46,1.38-.93,2.85-1.59,4.52l-1.52,3.94H.41Z"/>
    <path class="uuid-6300ef21-37ba-4a24-98a5-79539169dbcc" d="m19.87,82.94l-2.31,12.21h-3.09l2.31-12.21h3.09Z"/>
    <path class="uuid-6300ef21-37ba-4a24-98a5-79539169dbcc" d="m19.83,95.15l2.31-12.21h3.68l1.1,3.69c.48,1.63.83,3.02,1.13,4.5h.05c.05-1.32.24-2.79.58-4.62l.67-3.56h2.88l-2.31,12.21h-3.23l-1.23-3.99c-.52-1.73-.87-2.94-1.22-4.57h-.06c-.13,1.21-.46,3.16-.85,5.19l-.63,3.36h-2.87Z"/>
    <path class="uuid-6300ef21-37ba-4a24-98a5-79539169dbcc" d="m40.5,90.22h-4.29l-.44,2.3h4.82l-.5,2.63h-7.92l2.31-12.21h7.66l-.51,2.63h-4.55l-.4,2.05h4.32l-.5,2.6Z"/>
    <path class="uuid-6300ef21-37ba-4a24-98a5-79539169dbcc" d="m42.59,91.92c.74.43,1.83.77,3.01.77.85,0,1.63-.32,1.63-1.04,0-.61-.54-.95-1.59-1.49-1.18-.63-2.57-1.58-2.57-3.27,0-2.59,2.27-4.13,5.1-4.13,1.62,0,2.49.31,3.06.58l-.95,2.59c-.4-.21-1.32-.54-2.34-.52-1.1,0-1.62.44-1.62.96,0,.59.81.98,1.73,1.5,1.48.76,2.46,1.76,2.46,3.21,0,2.98-2.51,4.26-5.21,4.26-1.9,0-3.13-.48-3.73-.88l1.02-2.54Z"/>
    <path class="uuid-6300ef21-37ba-4a24-98a5-79539169dbcc" d="m58.6,92.28l-1.21,2.87h-3.31l5.8-12.21h4.04l1.3,12.21h-3.26l-.14-2.87h-3.22Zm3.11-2.33l-.14-2.24c-.05-.68-.09-1.7-.15-2.46h-.04c-.31.76-.66,1.78-.97,2.47l-.94,2.23h2.23Z"/>
    <path class="uuid-6300ef21-37ba-4a24-98a5-79539169dbcc" d="m66.44,95.15l2.31-12.21h3.68l1.1,3.69c.48,1.63.83,3.02,1.13,4.5h.05c.05-1.32.24-2.79.58-4.62l.67-3.56h2.88l-2.31,12.21h-3.23l-1.23-3.99c-.52-1.73-.87-2.94-1.22-4.57h-.06c-.13,1.21-.46,3.16-.85,5.19l-.63,3.36h-2.87Z"/>
    <path class="uuid-6300ef21-37ba-4a24-98a5-79539169dbcc" d="m81.08,83.13c1.1-.19,2.29-.28,3.52-.28,1.85,0,3.35.36,4.44,1.19,1.13.87,1.81,2.13,1.81,4.03,0,2.43-1.04,4.41-2.52,5.55-1.43,1.11-3.22,1.6-6,1.6-1.64,0-2.98-.14-3.51-.27l2.26-11.83Zm1.29,9.55c.2.03.49.05.96.05,1.19,0,2.37-.47,3.07-1.33.71-.86,1.09-1.97,1.09-3.32,0-1.83-1.07-2.77-2.84-2.77-.41,0-.67.03-.87.06l-1.4,7.3Z"/>
    <path class="uuid-6300ef21-37ba-4a24-98a5-79539169dbcc" d="m97.05,82.94h3.09l-1.79,9.51h4.59l-.51,2.7h-7.69l2.31-12.21Z"/>
    <path class="uuid-6300ef21-37ba-4a24-98a5-79539169dbcc" d="m109.26,82.94l-2.31,12.21h-3.09l2.31-12.21h3.09Z"/>
    <path class="uuid-6300ef21-37ba-4a24-98a5-79539169dbcc" d="m119.69,97.55c-1.69-.54-3.42-1.27-4.71-1.91-.57-.29-.75-.33-.87-.34-2.4-.18-4.28-2.06-4.28-5.14,0-2.07.72-4.1,2.07-5.48,1.26-1.29,2.96-1.94,4.77-1.94,3.29,0,5.05,2.33,5.05,5.12,0,2.09-.74,4.23-2.01,5.5-.42.42-.9.79-1.54,1.1v.05c.6.19,1.55.43,2.59.63l-1.06,2.41Zm-5.19-11.45c-.9.91-1.39,2.79-1.39,4.09,0,1.62.77,2.6,2.26,2.6.65,0,1.23-.28,1.69-.74.86-.87,1.36-2.79,1.37-4.17,0-1.29-.53-2.57-2.12-2.57-.72,0-1.33.3-1.82.79Z"/>
    <path class="uuid-6300ef21-37ba-4a24-98a5-79539169dbcc" d="m127.61,82.94l-1.31,6.93c-.08.39-.14.87-.14,1.41.01.74.48,1.49,1.57,1.49,1.24,0,2-.81,2.39-2.88l1.32-6.95h3.09l-1.28,6.78c-.71,3.72-2.25,5.62-5.89,5.62-2.74,0-4.28-1.38-4.28-4.01,0-.53.08-1.14.18-1.73l1.26-6.67h3.09Z"/>
    <path class="uuid-6300ef21-37ba-4a24-98a5-79539169dbcc" d="m146.94,87.88c0,2.26-.78,4.36-2.16,5.7-1.16,1.12-2.75,1.77-4.65,1.77-3.17,0-5.1-2.2-5.1-5.14,0-2.23.81-4.34,2.22-5.69,1.18-1.12,2.77-1.78,4.61-1.78,3.2,0,5.07,2.08,5.07,5.14Zm-7.23-1.78c-.88.88-1.38,2.66-1.38,4.04,0,1.6.73,2.65,2.25,2.65.65,0,1.25-.29,1.71-.75.87-.87,1.35-2.79,1.35-4.08,0-1.44-.54-2.65-2.13-2.65-.7,0-1.31.3-1.8.79Z"/>
    <path class="uuid-6300ef21-37ba-4a24-98a5-79539169dbcc" d="m149.78,83.19c.85-.21,2.18-.33,3.53-.33,1.13,0,2.4.11,3.34.63.88.47,1.54,1.27,1.54,2.54,0,1.83-1.13,2.87-2.7,3.42v.07c.66.34.94,1.09,1.07,2.13.16,1.23.26,3,.5,3.51h-3.17c-.11-.35-.24-1.31-.37-2.85-.12-1.39-.58-1.74-1.54-1.74h-.56l-.87,4.6h-3.06l2.29-11.96Zm2.09,5.07h.96c1.2,0,2.16-.69,2.16-1.76,0-.85-.76-1.22-1.65-1.22-.43,0-.72.03-.91.07l-.55,2.92Z"/>
    <path class="uuid-6300ef21-37ba-4a24-98a5-79539169dbcc" d="m159.21,91.92c.74.43,1.83.77,3.01.77.85,0,1.63-.32,1.63-1.04,0-.61-.54-.95-1.59-1.49-1.18-.63-2.57-1.58-2.57-3.27,0-2.59,2.27-4.13,5.1-4.13,1.62,0,2.49.31,3.06.58l-.95,2.59c-.4-.21-1.32-.54-2.34-.52-1.1,0-1.62.44-1.62.96,0,.59.81.98,1.73,1.5,1.48.76,2.46,1.76,2.46,3.21,0,2.98-2.51,4.26-5.21,4.26-1.9,0-3.13-.48-3.73-.88l1.02-2.54Z"/>
  </g>
</svg>