<?xml version="1.0" encoding="UTF-8"?>
<svg id="uuid-d10a65e9-bf23-4603-8902-581ac4cc090b" data-name="Layer 1" xmlns="http://www.w3.org/2000/svg" viewBox="0 0 512 512">
  <rect x="46.93" y="25.86" width="418.14" height="458.94" rx="25.94" ry="25.94" style="fill: #e6e1da; opacity: .05;"/>
  <rect x="46.93" y="25.86" width="418.14" height="458.94" rx="25.94" ry="25.94" transform="translate(.66 511.34) rotate(-90)" style="fill: #e6e1da; opacity: .05;"/>
  <g style="opacity: .4;">
    <path d="m404.19,324.38h29.45v21.06c0,8.52-.75,15.25-2.25,20.17-1.5,4.93-4.28,9.34-8.33,13.26-4.05,3.91-9.22,6.99-15.51,9.22l-5.76-12.16c5.87-1.96,10.08-4.68,12.63-8.17,2.55-3.49,3.9-8.14,4.03-13.94h-14.25v-29.45Zm-49.15,0h29.45v21.06c0,8.59-.75,15.33-2.25,20.22-1.5,4.89-4.3,9.29-8.38,13.2-4.09,3.91-9.24,6.99-15.46,9.22l-5.76-12.16c5.87-1.96,10.08-4.68,12.63-8.17,2.55-3.49,3.9-8.14,4.03-13.94h-14.25v-29.45Z" style="fill: #b5b0a8;"/>
    <path d="m107.81,279.95h-29.45v-21.06c0-8.52.75-15.25,2.25-20.17,1.5-4.93,4.28-9.34,8.33-13.26,4.05-3.91,9.22-6.99,15.51-9.22l5.76,12.16c-5.87,1.96-10.08,4.68-12.63,8.17-2.55,3.49-3.9,8.14-4.03,13.94h14.25v29.45Zm49.15,0h-29.45v-21.06c0-8.59.75-15.33,2.25-20.22,1.5-4.89,4.3-9.29,8.38-13.2,4.09-3.91,9.24-6.99,15.46-9.22l5.76,12.16c-5.87,1.96-10.08,4.68-12.63,8.17-2.55,3.49-3.9,8.14-4.03,13.94h14.25v29.45Z" style="fill: #b5b0a8;"/>
  </g>
  <g style="opacity: .75;">
    <text transform="translate(167.4 433.52)" style="fill: #b5b0a8; font-family: MyriadPro-Semibold, &apos;Myriad Pro&apos;; font-size: 25.8px; font-weight: 600;"><tspan x="0" y="0" style="letter-spacing: 0em;">G</tspan><tspan x="17.34" y="0">oogle </tspan><tspan x="86.5" y="0" style="letter-spacing: 0em;">R</tspan><tspan x="101.25" y="0" style="letter-spacing: 0em;">e</tspan><tspan x="114.49" y="0">vi</tspan><tspan x="134.2" y="0" style="letter-spacing: 0em;">e</tspan><tspan x="147.43" y="0" style="letter-spacing: -.01em;">w</tspan><tspan x="166.44" y="0">s</tspan></text>
  </g>
  <g>
    <polygon points="160.55 175.41 165.96 186.37 178.06 188.13 169.3 196.66 171.37 208.71 160.55 203.02 149.73 208.71 151.8 196.66 143.05 188.13 155.14 186.37 160.55 175.41" style="fill: #e59007;"/>
    <polygon points="208.28 175.41 213.69 186.37 225.78 188.13 217.03 196.66 219.09 208.71 208.28 203.02 197.46 208.71 199.52 196.66 190.77 188.13 202.87 186.37 208.28 175.41" style="fill: #e59007;"/>
    <polygon points="256 175.41 261.41 186.37 273.5 188.13 264.75 196.66 266.82 208.71 256 203.02 245.18 208.71 247.25 196.66 238.5 188.13 250.59 186.37 256 175.41" style="fill: #e59007;"/>
    <polygon points="303.72 175.41 309.13 186.37 321.23 188.13 312.48 196.66 314.54 208.71 303.72 203.02 292.91 208.71 294.97 196.66 286.22 188.13 298.31 186.37 303.72 175.41" style="fill: #e59007;"/>
    <polygon points="351.45 175.41 356.86 186.37 368.95 188.13 360.2 196.66 362.27 208.71 351.45 203.02 340.63 208.71 342.7 196.66 333.94 188.13 346.04 186.37 351.45 175.41" style="fill: #e59007;"/>
  </g>
</svg>